        <svg
          class="w-6 h-6 fill-current"
          xmlns="http://www.w3.org/2000/svg"
          viewBox="0 0 24 24"
        >
          <path
            d="M7.5 2C4.42 2 2 4.42 2 7.5v9C2 19.58 4.42 22 7.5 22h9c3.08 0 5.5-2.42 5.5-5.5v-9C22 4.42 19.58 2 16.5 2h-9zM12 6c3.32 0 6 2.68 6 6s-2.68 6-6 6-6-2.68-6-6 2.68-6 6-6zm0 2.5c-1.93 0-3.5 1.57-3.5 3.5s1.57 3.5 3.5 3.5 3.5-1.57 3.5-3.5-1.57-3.5-3.5-3.5zm5.5-3.25a1.25 1.25 0 110 2.5 1.25 1.25 0 010-2.5z"
          ></path>
        </svg>
